<svg xmlns="http://www.w3.org/2000/svg" viewBox="0 0 64 80" role="img" aria-labelledby="title desc">
  <title id="title">Parcel Sweep postal truck map pin</title>
  <desc id="desc">A custom postal-style delivery truck map pin. Not an official USPS logo.</desc>
  <defs>
    <filter id="shadow" x="-25%" y="-15%" width="150%" height="150%">
      <feDropShadow dx="0" dy="5" stdDeviation="4" flood-color="#020617" flood-opacity="0.35"/>
    </filter>
    <linearGradient id="pin" x1="0" x2="1" y1="0" y2="1">
      <stop offset="0" stop-color="#1d4ed8"/>
      <stop offset="1" stop-color="#0f172a"/>
    </linearGradient>
  </defs>
  <g filter="url(#shadow)">
    <path d="M32 76s24-24.7 24-45C56 17.7 45.3 7 32 7S8 17.7 8 31c0 20.3 24 45 24 45Z" fill="url(#pin)"/>
    <circle cx="32" cy="31" r="20" fill="#f8fafc"/>
    <path d="M15 39 C24 29 31 34 39 24 C44 18 49 18 53 20" fill="none" stroke="#e11d48" stroke-width="3" stroke-linecap="round"/>
    <path d="M14 42 C24 31 33 35 42 24 C47 20 51 20 54 22" fill="none" stroke="#2563eb" stroke-width="2.4" stroke-linecap="round"/>
    <g transform="translate(14 25) scale(.75)">
      <path d="M5 5.5c0-2.2 1.8-4 4-4h22c2.2 0 4 1.8 4 4V25H5V5.5Z" fill="#ffffff" stroke="#0f172a" stroke-width="2"/>
      <path d="M35 10h4.5c1 0 1.9.5 2.5 1.3l4.2 6c.5.7.8 1.6.8 2.5V25H35V10Z" fill="#ffffff" stroke="#0f172a" stroke-width="2"/>
      <path d="M38 13h2.1c.7 0 1.4.4 1.8 1l2.6 3.8H38V13Z" fill="#bfdbfe" stroke="#0f172a" stroke-width="1.4"/>
      <path d="M8 13h26" stroke="#2563eb" stroke-width="5" stroke-linecap="round"/>
      <path d="M8 18h26" stroke="#e11d48" stroke-width="2.2" stroke-linecap="round"/>
      <rect x="13" y="20" width="8" height="5" rx="1" fill="#f59e0b" stroke="#0f172a" stroke-width="1.2"/>
      <circle cx="15" cy="26" r="4.6" fill="#0f172a"/>
      <circle cx="15" cy="26" r="2" fill="#e2e8f0"/>
      <circle cx="39" cy="26" r="4.6" fill="#0f172a"/>
      <circle cx="39" cy="26" r="2" fill="#e2e8f0"/>
    </g>
  </g>
</svg>
